<svg width="100" height="100" viewBox="0 0 100 100" fill="none" xmlns="http://www.w3.org/2000/svg">
<path fill-rule="evenodd" clip-rule="evenodd" d="M71.6391 74.6063C71.2577 78.4792 64.2552 81.1198 54.9154 81.3447C54.9056 81.3447 54.886 81.3447 54.8763 81.3447C52.6464 81.3936 50.2797 81.3154 47.8347 81.0806C42.8665 80.6014 38.3286 79.555 34.6709 78.1662C33.1843 77.6088 31.8543 76.9926 30.6904 76.3374C27.4044 74.4792 25.5266 72.308 25.732 70.1467C26.1623 65.7359 35.1794 62.929 46.4655 63.4572C47.4728 63.5061 48.4997 63.5745 49.5364 63.6821C54.6024 64.1711 59.2283 65.2567 62.9154 66.6748C68.4606 68.797 71.9227 71.7114 71.6391 74.6063Z" fill="#1C1C28" stroke="#1C1C28" stroke-width="0.208313" stroke-linecap="round" stroke-linejoin="round"/>
<path d="M73.8983 71.6039C75.0914 73.0709 75.2088 74.352 75.1403 75.9951C74.9154 81.2762 67.7467 82.4205 63.7467 83.6039" stroke="#1C1C28" stroke-width="0.208313" stroke-linecap="round" stroke-linejoin="round"/>
<path d="M33.9863 61.4913C28.2161 62.4595 21.2821 66.2444 23.3848 73.1295" stroke="#1C1C28" stroke-width="0.208313" stroke-linecap="round" stroke-linejoin="round"/>
<path d="M59.6 76.083C59.9032 75.6625 59.8543 75.9363 59.5022 76.0146C58.2406 76.2982 56.979 76.6307 55.7271 76.9632C54.1428 77.3838 52.7932 78.4107 51.3359 79.1539" stroke="#1C1C28" stroke-width="0.208313" stroke-linecap="round" stroke-linejoin="round"/>
<path fill-rule="evenodd" clip-rule="evenodd" d="M67.3457 61.2762C73.155 55.0855 58.1917 26.0292 48.9203 31.6234C45.7125 33.1197 44.402 35.6527 43.1208 38.6356C40.0108 50.0488 26.3775 46.2346 25.9667 58.5574C25.1941 76.5427 61.1257 74.5085 67.3457 61.2762Z" fill="#174AD4"/>
<path fill-rule="evenodd" clip-rule="evenodd" d="M33.7418 40.1906C35.8738 39.8483 37.9081 39.6332 37.3213 42.665C37.243 43.0757 36.6562 45.6381 34.5927 45.9217C30.4068 46.5965 29.5364 40.7677 33.7418 40.1906Z" fill="#174AD4"/>
<path fill-rule="evenodd" clip-rule="evenodd" d="M40.0596 39.5255C39.1599 40.1612 37.4484 39.281 38.0156 38.0977C38.4557 35.6233 43.3066 38.4106 40.0596 39.5255Z" fill="#174AD4"/>
<path d="M40.8909 53.5989C41.1941 54.3128 41.5071 55.0952 41.3115 55.8483C41.155 56.4742 40.6758 56.973 40.1966 57.4033C39.9521 57.6184 39.6978 57.8434 39.3848 57.9314C39.0719 58.0292 38.6905 57.9705 38.4851 57.7162C38.2601 57.4424 38.3188 57.0219 38.4851 56.7089C38.6122 56.4644 38.8274 56.2492 39.0914 56.171C39.5511 56.0341 40.0401 56.3764 40.2259 56.8165C40.4117 57.2566 40.3628 57.7554 40.265 58.2248C39.8641 60.1417 38.7785 61.8238 37.7125 63.4669" stroke="white" stroke-width="0.208313" stroke-linecap="round" stroke-linejoin="round"/>
<path fill-rule="evenodd" clip-rule="evenodd" d="M35.3066 51.3788C36.441 51.5157 37.8689 49.6477 36.1965 49.4619C35.6782 49.6477 34.6122 51.1441 35.1305 51.3397" fill="#FAF6EB"/>
<path fill-rule="evenodd" clip-rule="evenodd" d="M46.534 38.7824C45.3115 39.0367 44.8225 40.1418 45.4191 41.2958C45.5853 41.6186 46.5633 43.0269 47.4435 42.8704C47.8641 42.7922 49.2039 42.978 48.9399 39.7799C48.7736 38.5281 48.1672 38.4499 46.534 38.7824Z" fill="#D43917" stroke="#1C1C28" stroke-width="0.208313" stroke-linecap="round" stroke-linejoin="round"/>
<path fill-rule="evenodd" clip-rule="evenodd" d="M65.0572 57.3056C63.5804 62.2542 56.1477 73.6381 55.6196 75.5256L55.5413 75.2029C53.869 75.7897 44.2748 75.8777 41.1355 72.8557C40.8225 72.5525 40.578 72.2298 40.402 71.8581L43.0034 65.3838C42.8469 65.6087 41.3115 64.2493 43.1012 60.4938C43.5902 59.4669 44.6073 56.6894 44.6073 56.6894C44.6856 56.2689 44.9105 54.6356 45.1844 52.6405C45.1452 52.5721 45.1355 52.5329 45.1355 52.5329C44.2748 51.9461 41.0474 52.1809 40.3139 49.6576C40.2064 49.2762 40.1477 48.8263 40.1672 48.2982C40.1868 47.7114 40.5487 47.4376 40.9594 47.3202C41.3604 47.2029 41.8103 47.2224 42.0352 47.242C43.2479 47.3104 44.4313 47.7603 45.556 48.2298C45.6342 48.2591 45.7027 48.2982 45.7809 48.3276C46.1624 45.5794 46.5242 43.1931 46.6416 43.0659C46.8372 42.8508 47.023 42.6356 47.2088 42.4303C47.7956 41.7848 48.3922 41.2958 49.3995 41.6674C50.0548 41.9021 50.6905 42.1564 51.2968 42.4498C52.578 43.0659 53.7418 43.8483 54.6709 45.0122C55.5902 46.1564 56.4215 47.3887 57.0474 48.709C57.6147 49.9021 57.9863 51.2029 58.221 52.4938C58.3873 53.374 58.5046 54.2933 58.446 55.1931C58.4362 55.418 58.4068 55.6332 58.3677 55.8581C58.1917 56.8459 57.9472 57.8141 57.6734 58.7726L65.0572 57.3056Z" fill="#D43917" stroke="#1C1C28" stroke-width="0.208313" stroke-linecap="round" stroke-linejoin="round"/>
<path fill-rule="evenodd" clip-rule="evenodd" d="M41.1354 72.8558C40.8225 72.5526 40.578 72.2298 40.4019 71.8582L43.0034 65.3839C42.8469 65.6088 41.3115 64.2494 43.1012 60.4939C43.5902 59.467 44.6073 56.6895 44.6073 56.6895C44.6855 56.269 44.9105 54.6357 45.1843 52.6406C45.1452 52.5721 45.1354 52.533 45.1354 52.533C44.2748 51.9462 41.0474 52.1809 40.3139 49.6577C41.0278 49.7849 41.7907 50.0196 42.6024 50.2641C44.2259 50.7531 45.2039 51.0465 45.7222 51.956C46.3286 53.0122 45.5755 53.599 46.0743 56.0929C46.221 56.846 46.3677 57.1589 46.5535 58.2641C46.7687 59.5355 46.8665 60.1809 46.6807 60.6602C46.2112 61.8435 44.8322 61.9609 44.8518 62.7042C44.8616 63.1443 45.3506 63.3203 45.8494 63.7897C45.8494 63.7897 47.1794 65.022 47.287 67.2616C47.4239 70.088 43.688 73.3545 41.1354 72.8558Z" fill="#FAF6EB"/>
<path fill-rule="evenodd" clip-rule="evenodd" d="M58.4557 55.203C57.82 55.7409 57.1257 56.1614 56.3726 56.3961C54.3286 57.0416 52.2161 56.2299 50.4068 55.5257C48.979 54.9682 47.2577 54.313 46.8176 52.8558C46.5731 52.044 46.886 51.5355 46.4166 50.9389C45.8787 50.2739 45.1648 50.5281 43.8934 49.9805C42.6415 49.4426 41.9081 48.5722 41.6342 48.2396C41.4191 47.9854 41.1843 47.6626 40.9692 47.3105C41.3702 47.1932 41.82 47.2127 42.045 47.2323C43.2577 47.3008 44.4411 47.7506 45.5658 48.2201C45.644 48.2494 45.7125 48.2885 45.7907 48.3179C46.1721 45.5697 46.534 43.1834 46.6513 43.0563C46.8469 42.8411 47.0327 42.6259 47.2186 42.4206C48.5291 42.3325 49.9276 42.3423 51.3164 42.4401C52.5975 43.0563 53.7614 43.8387 54.6905 45.0025C55.6098 46.1467 56.4411 47.379 57.067 48.6993C57.6342 49.8924 58.0059 51.1932 58.2406 52.4841C58.3971 53.3839 58.5242 54.3032 58.4557 55.203Z" fill="#1C1C28" stroke="#1C1C28" stroke-width="0.208313" stroke-linecap="round" stroke-linejoin="round"/>
<path fill-rule="evenodd" clip-rule="evenodd" d="M43.0425 72.6601C43.4435 72.2983 43.8347 71.9168 44.1966 71.5159C41.155 69.6772 41.1257 68.1907 41.1257 68.1907L34.6709 78.1564C37.82 79.3496 41.6244 80.2885 45.7809 80.8361C45.1061 79.0758 44.0694 77.4034 42.7491 75.9853C41.9667 75.0073 42.2601 73.4425 43.0425 72.6601Z" fill="#FAF6EB"/>
<path fill-rule="evenodd" clip-rule="evenodd" d="M47.0817 72.9437C45.8983 72.4547 44.9594 71.9755 44.1966 71.5159C43.8445 71.9168 43.4533 72.2983 43.0425 72.6601C42.2601 73.4425 41.9668 75.0073 42.7491 75.9853C44.0792 77.4034 45.1159 79.0758 45.7809 80.8362C46.4557 80.9242 47.1403 81.0024 47.8347 81.0709C50.2699 81.3056 52.6367 81.3936 54.8763 81.3349C54.8861 81.3349 54.9056 81.3349 54.9154 81.3349L57.6636 73.6381C57.6636 73.6479 54.133 75.8582 47.0817 72.9437Z" fill="#DE4B2B"/>
<path fill-rule="evenodd" clip-rule="evenodd" d="M58.9643 51.8582C59.2381 51.1247 58.8469 49.9706 58.6318 49.2371C57.4288 45.2078 54.0254 43.1833 50.6122 41.2078C49.4288 40.5232 48.7638 40.4058 47.6978 42.3423C47.1305 43.3692 46.7589 45.8924 47.5315 46.5965C49.8298 48.6601 52.6758 50.2836 54.2406 52.8851C54.4753 53.2763 55.6684 56.797 55.6684 56.797C55.6684 56.797 56.4313 55.9071 57.3702 55.0953C58.1526 54.4107 58.3775 54.3618 58.4949 54.1956L58.9643 51.8582Z" fill="#F7AA9A"/>
<path d="M69.419 36.5819C69.1354 36.4352 69.018 36.0929 69.1647 35.7995L69.1843 35.7702C69.331 35.4866 69.6733 35.3692 69.9667 35.5159C70.2503 35.6626 70.3677 36.0049 70.221 36.2983L70.2014 36.3277C70.0449 36.6211 69.7026 36.7286 69.419 36.5819ZM69.8493 35.7506C69.6928 35.6724 69.507 35.7311 69.419 35.8876L69.3994 35.9169C69.3212 36.0734 69.3799 36.2592 69.5364 36.3472C69.6928 36.4255 69.8787 36.3668 69.9667 36.2103L69.9862 36.181C70.0645 36.0147 70.0058 35.8289 69.8493 35.7506Z" fill="#1C1C28" stroke="#1C1C28" stroke-width="0.208313" stroke-linecap="round" stroke-linejoin="round"/>
<path d="M68.8028 37.7848C68.5192 37.6381 68.4019 37.2958 68.5486 37.0024L68.5681 36.9731C68.7148 36.6895 69.0571 36.5721 69.3505 36.7188C69.6439 36.8655 69.7515 37.2078 69.6048 37.5012L69.5852 37.5305C69.4288 37.8239 69.0865 37.9315 68.8028 37.7848ZM69.2234 36.9535C69.0669 36.8753 68.8811 36.934 68.7931 37.0904L68.7735 37.1198C68.6953 37.2763 68.754 37.4621 68.9104 37.5501C69.0669 37.6381 69.2527 37.5697 69.3407 37.4132L69.3603 37.3838C69.4483 37.2176 69.3896 37.0318 69.2234 36.9535Z" fill="#1C1C28" stroke="#1C1C28" stroke-width="0.208313" stroke-linecap="round" stroke-linejoin="round"/>
<path d="M69.8689 35.1149C69.4484 34.8998 69.2919 34.3814 69.4973 33.9707L70.2112 32.5917C70.4264 32.1711 70.9349 32.0147 71.3555 32.22C71.776 32.4352 71.9325 32.9535 71.7271 33.3643L71.0132 34.7433C70.798 35.1638 70.2797 35.3301 69.8689 35.1149ZM71.2381 32.4548C70.9447 32.3081 70.5926 32.4156 70.4459 32.709L69.732 34.088C69.5853 34.3814 69.6929 34.7335 69.9863 34.8802C70.2797 35.0269 70.6317 34.9193 70.7784 34.6259L71.4924 33.2469C71.6391 32.9535 71.5315 32.6015 71.2381 32.4548Z" fill="#1C1C28" stroke="#1C1C28" stroke-width="0.208313" stroke-linecap="round" stroke-linejoin="round"/>
<path fill-rule="evenodd" clip-rule="evenodd" d="M75 27L60.3729 55.2469C59.9328 56.1076 58.8765 56.4401 58.0159 56L45.253 49.4279C44.3924 48.9878 44.0599 47.9315 44.5 47.0709L59.6763 17.5049C59.9677 17.4854 60.5 18.5 60.5 18.5C60.5 18.5 60.6678 18.7565 60.6699 18.7523L60.5 18.5L45.2139 47.3545C44.9597 47.8533 45.1553 48.4694 45.654 48.7335L58.3191 55.2469C58.4658 55.3252 58.6222 55.3643 58.7885 55.3643C59.1699 55.3643 59.522 55.1491 59.698 54.8069L74.5 24L75 27Z" fill="#1C1C28"/>
<path d="M59.6763 17.5049C59.9677 17.4854 60.5 18.5 60.5 18.5C60.5 18.5 60.6678 18.7565 60.6699 18.7523L74.5 24L75 27L75.9564 25.3263C76.5165 24.3462 76.1128 23.0967 75.0851 22.6296L62.0618 16.7099C61.1811 16.3096 60.1408 16.6563 59.6763 17.5049V17.5049Z" fill="#1C1C28"/>
<path d="M75 27L60.3729 55.2469C59.9328 56.1076 58.8765 56.4401 58.0159 56L45.253 49.4279C44.3924 48.9878 44.0599 47.9315 44.5 47.0709L59.6763 17.5049M75 27L74.5 24M75 27L75.9564 25.3263C76.5165 24.3462 76.1128 23.0967 75.0851 22.6296L62.0618 16.7099C61.1811 16.3096 60.1408 16.6563 59.6763 17.5049V17.5049M59.6763 17.5049C59.9677 17.4854 60.5 18.5 60.5 18.5M60.6699 18.7523L74.5 24M60.6699 18.7523C60.6678 18.7565 60.5 18.5 60.5 18.5M60.6699 18.7523L60.5 18.5M74.5 24L59.698 54.8069C59.522 55.1491 59.1699 55.3643 58.7885 55.3643C58.6222 55.3643 58.4658 55.3252 58.3191 55.2469L45.654 48.7335C45.1553 48.4694 44.9597 47.8533 45.2139 47.3545L60.5 18.5" stroke="#1C1C28" stroke-width="0.208313" stroke-linecap="round" stroke-linejoin="round"/>
<path fill-rule="evenodd" clip-rule="evenodd" d="M73.4273 23.182C74.5326 23.623 75.0216 24.9221 74.4737 25.9785L59.5217 54.802C59.3457 55.1443 58.9936 55.3594 58.6122 55.3594C58.4459 55.3594 58.2895 55.3203 58.1428 55.2421L45.4777 48.7286C44.9789 48.4743 44.7833 47.8582 45.0376 47.3496L59.6148 19.2089C60.1091 18.2547 61.2682 17.861 62.2424 18.3148C63.6078 18.9509 65.518 19.8353 67 20.5C68.974 21.3853 71.6158 22.4592 73.4273 23.182Z" fill="#FAF6EB"/>
<path fill-rule="evenodd" clip-rule="evenodd" d="M66.8959 50.4108C66.9937 50.9389 65.957 55.6333 64.6269 58.5379L49.9863 61.3154C49.9863 61.3154 50.3677 59.8778 51.1599 58.2836C51.8641 56.8655 52.8812 55.3301 54.2406 54.5672C58.2504 52.3179 61.3115 53.3839 61.3115 53.3839C61.3115 53.3839 61.5071 51.643 62.7492 49.4328C62.7492 49.4328 62.7589 49.0611 62.8176 48.5037C62.935 47.3888 63.2479 45.5697 64.0792 44.7384C65.8592 42.9584 67.2675 43.3105 67.1697 43.5844C67.2479 43.956 66.9839 50.1467 66.8959 50.4108Z" fill="#D43917" stroke="#1C1C28" stroke-width="0.208313" stroke-linecap="round" stroke-linejoin="round"/>
<path fill-rule="evenodd" clip-rule="evenodd" d="M44.2063 41.3839C42.9643 41.6479 42.4655 42.7629 43.0719 43.9462C43.2381 44.269 44.2357 45.7164 45.1354 45.5501C45.556 45.4719 46.9252 45.6577 46.6611 42.401C46.4851 41.1296 45.8592 41.0416 44.2063 41.3839Z" fill="#D43917" stroke="#1C1C28" stroke-width="0.208313" stroke-linecap="round" stroke-linejoin="round"/>
<path d="M54.8763 81.3447C52.6464 81.3936 50.2797 81.3154 47.8347 81.0807C42.8665 80.6015 38.3286 79.555 34.6709 78.1663" stroke="#1C1C28" stroke-width="0.208313" stroke-linecap="round" stroke-linejoin="round"/>
<path d="M41.3506 68.8752C41.3506 68.8752 41.7907 70.2933 44.1966 71.5158C46.6024 72.7383 49.0963 74.3911 52.6073 74.3911" stroke="#1C1C28" stroke-width="0.208313" stroke-linecap="round" stroke-linejoin="round"/>
<path d="M65.8298 43.9169C65.8298 43.9169 65.468 46.1271 65.8298 46.4792C66.1917 46.8411 66.7198 46.8411 66.7198 46.8411" stroke="#1C1C28" stroke-width="0.208313" stroke-linecap="round" stroke-linejoin="round"/>
<path fill-rule="evenodd" clip-rule="evenodd" d="M61.4191 55.066C59.9717 55.7506 59.2382 54.6064 57.3702 55.0953C55.0719 55.7115 54.8763 57.8044 52.9008 58.3032C52.4411 58.4205 51.8641 58.4597 51.1501 58.2836C51.8543 56.8655 52.8714 55.3301 54.2308 54.5672C58.2406 52.3178 61.3017 53.3839 61.3017 53.3839C61.3017 53.3839 61.4973 51.643 62.7394 49.4328C62.7394 49.4328 62.7492 49.0611 62.8079 48.5037C63.2382 49.1198 63.5413 49.824 63.6294 50.5868C63.8152 52.3178 62.9154 54.3521 61.4191 55.066Z" fill="#FAF6EB"/>
<path fill-rule="evenodd" clip-rule="evenodd" d="M48.7051 62.4987C48.578 61.7163 50.2895 60.8263 51.7271 60.0831C54.9056 58.44 58.3384 57.8532 58.8078 57.775C60.754 57.462 62.045 57.4816 63.2381 56.3862C63.9618 55.731 64.7931 54.4889 65.0474 54.577C65.4582 54.7236 65.1843 57.374 64.3921 59.0562C62.5731 62.9388 56.7344 63.6136 55.6782 63.7408C52.6269 64.1222 48.8811 63.6038 48.7051 62.4987Z" fill="#DE4B2B"/>
<path d="M72.4313 39.9951L69.4778 41.9609" stroke="#1C1C28" stroke-width="0.208313" stroke-linecap="round" stroke-linejoin="round"/>
<path d="M72.6073 43.0659L69.5364 43.418" stroke="#1C1C28" stroke-width="0.208313" stroke-linecap="round" stroke-linejoin="round"/>
<path d="M69.3017 44.9242L72.1379 47.9951" stroke="#1C1C28" stroke-width="0.208313" stroke-linecap="round" stroke-linejoin="round"/>
<path d="M69.4191 48.0537L70.8078 49.7359" stroke="#1C1C28" stroke-width="0.208313" stroke-linecap="round" stroke-linejoin="round"/>
<path d="M41.4484 73.7065C41.0963 74.5281 40.8616 75.4669 41.1648 76.2982C41.3897 76.9339 41.8983 77.4229 42.3286 77.951C42.7589 78.4792 43.1306 79.1246 43.023 79.7995" stroke="#1C1C28" stroke-width="0.208313" stroke-linecap="round" stroke-linejoin="round"/>
<path d="M42.9937 77.5208C43.2773 78.1075 43.8836 78.4792 44.1477 79.066C44.2748 79.3496 44.3139 79.6723 44.3139 79.9853" stroke="#1C1C28" stroke-width="0.208313" stroke-linecap="round" stroke-linejoin="round"/>
<path d="M46.0939 66.7726C46.0939 67.2225 46.0939 67.6821 46.0156 68.132C45.9374 68.5819 45.7711 69.022 45.4679 69.3545C45.1452 69.7164 44.6953 69.9413 44.265 70.1564" stroke="#1C1C28" stroke-width="0.208313" stroke-linecap="round" stroke-linejoin="round"/>
<path d="M46.446 69.0024C46.3188 69.3936 46.0548 69.7457 45.7125 69.9804" stroke="#1C1C28" stroke-width="0.208313" stroke-linecap="round" stroke-linejoin="round"/>
<path d="M43.8836 44.0537C43.8347 43.6234 43.7858 43.1735 43.9521 42.7823C44.1183 42.3911 44.5878 42.0782 44.9887 42.2542" stroke="#1C1C28" stroke-width="0.208313" stroke-linecap="round" stroke-linejoin="round"/>
<path d="M63.199 57.2371C61.1354 60.6698 59.1795 64.1808 57.3408 67.7407" stroke="#1C1C28" stroke-width="0.208313" stroke-linecap="round" stroke-linejoin="round"/>
<path d="M60.4606 64.132L56.5486 71.6527" stroke="#1C1C28" stroke-width="0.208313" stroke-linecap="round" stroke-linejoin="round"/>
<path d="M65.3311 52.3472C64.7149 54.978 64.8812 56.8068 62.5634 60.4547" stroke="#1C1C28" stroke-width="0.208313" stroke-linecap="round" stroke-linejoin="round"/>
<path d="M74.133 24.1417C73.8885 24.2591 73.644 24.3667 73.3897 24.484L73.3408 24.5036" stroke="#FAF6EB" stroke-width="0.208313" stroke-linecap="round" stroke-linejoin="round"/>
<path d="M71.3555 84.6895C65.8689 86.1467 60.353 88.0929 54.6807 87.7506" stroke="#1C1C28" stroke-width="0.208313" stroke-linecap="round" stroke-linejoin="round"/>
<path d="M55.353 49.6821C57.8646 49.6821 59.9007 47.6461 59.9007 45.1345C59.9007 42.6229 57.8646 40.5868 55.353 40.5868C52.8414 40.5868 50.8054 42.6229 50.8054 45.1345C50.8054 47.6461 52.8414 49.6821 55.353 49.6821Z" fill="#174AD4"/>
<path d="M52.3115 43.5305C53.1917 41.8483 55.2748 41.2029 56.9472 42.0928" stroke="white" stroke-width="0.208313" stroke-linecap="round" stroke-linejoin="round"/>
<path d="M53.1525 43.9706C53.7882 42.7579 55.2943 42.2885 56.5071 42.9339" stroke="white" stroke-width="0.208313" stroke-linecap="round" stroke-linejoin="round"/>
<path d="M55.353 45.7506C55.6933 45.7506 55.9692 45.4747 55.9692 45.1344C55.9692 44.7942 55.6933 44.5183 55.353 44.5183C55.0127 44.5183 54.7369 44.7942 54.7369 45.1344C54.7369 45.4747 55.0127 45.7506 55.353 45.7506Z" stroke="white" stroke-width="0.208313" stroke-linecap="round" stroke-linejoin="round"/>
<path d="M64.0956 30.9581L63.4442 31.7549L61.5401 30.7368C61.4855 31.6212 61.8513 32.2736 62.6376 32.694C63.1333 32.959 63.7982 33.0141 64.6323 32.8591L64.8123 32.9553L63.9689 34.5326C63.1267 34.4599 62.3503 34.2336 61.6399 33.8537C60.7683 33.3877 60.16 32.7864 59.8149 32.0497C59.485 31.3454 59.419 30.565 59.6171 29.7086L58.9634 29.3591L59.6195 28.5649L59.9511 28.7422C60.0091 28.6108 60.0728 28.4804 60.142 28.3509C60.191 28.2593 60.2407 28.1702 60.2911 28.0834L59.789 27.815L60.4451 27.0208L60.8998 27.2639C61.5078 26.5901 62.2101 26.184 63.0069 26.0456C63.8359 25.9 64.6877 26.0611 65.5624 26.5288C66.2666 26.9053 66.8835 27.426 67.4132 28.0909L66.5724 29.6634L66.3924 29.5672C66.0564 28.7906 65.6389 28.269 65.14 28.0022C64.3064 27.5565 63.5245 27.6481 62.7945 28.2769L65.2338 29.5811L64.5824 30.3779L62.1241 29.0635C62.0689 29.1517 62.0167 29.2416 61.9678 29.3332C61.8986 29.4626 61.8373 29.5923 61.7841 29.7222L64.0956 30.9581Z" fill="#1C2628"/>
<rect x="55.5255" y="34" width="9.41116" height="1.19881" transform="rotate(26 55.5255 34)" fill="#1C1C28"/>
<circle cx="60" cy="37" r="0.9" fill="#FAF6EB" stroke="#1C1C28" stroke-width="0.2"/>
</svg>
