<svg width="120" height="30" viewBox="0 0 120 30" fill="none" xmlns="http://www.w3.org/2000/svg">
<g clip-path="url(#clip0_6_2)">
<path d="M17.4883 8.87891H10.1641V12.1719H16.9023V15.5H10.1641V23H5.80469V5.55078H17.4883V8.87891ZM23.6172 23H19.5156V9.83984H23.6172V23ZM23.7344 7.96484H19.3984V4.76562H23.7344V7.96484ZM39.0859 23H34.9609V16.4727C34.9609 15.9414 34.9375 15.4141 34.8906 14.8906C34.8516 14.3594 34.7734 13.9688 34.6562 13.7188C34.5156 13.4219 34.3125 13.2109 34.0469 13.0859C33.7812 12.9531 33.4258 12.8867 32.9805 12.8867C32.6445 12.8867 32.3047 12.9492 31.9609 13.0742C31.6172 13.1992 31.25 13.3984 30.8594 13.6719V23H26.7578V9.83984H30.8594V11.293C31.5312 10.7227 32.1836 10.2773 32.8164 9.95703C33.457 9.63672 34.1641 9.47656 34.9375 9.47656C36.2812 9.47656 37.3086 9.90234 38.0195 10.7539C38.7305 11.5977 39.0859 12.8242 39.0859 14.4336V23ZM48.5898 23.3516C47.5039 23.3516 46.5078 23.2148 45.6016 22.9414C44.7031 22.668 43.9219 22.2461 43.2578 21.6758C42.6016 21.1055 42.0898 20.3906 41.7227 19.5312C41.3555 18.6641 41.1719 17.6445 41.1719 16.4727C41.1719 15.2148 41.3711 14.1445 41.7695 13.2617C42.168 12.3789 42.707 11.6523 43.3867 11.082C44.043 10.5352 44.8125 10.1328 45.6953 9.875C46.5859 9.60938 47.5117 9.47656 48.4727 9.47656C49.1992 9.47656 49.9258 9.5625 50.6523 9.73438C51.3789 9.89844 52.1094 10.1641 52.8438 10.5312V14.0469H52.3164C52.1523 13.8906 51.9492 13.7188 51.707 13.5312C51.4727 13.3438 51.2148 13.1719 50.9336 13.0156C50.6367 12.8516 50.3008 12.7148 49.9258 12.6055C49.5508 12.4883 49.1328 12.4297 48.6719 12.4297C47.625 12.4297 46.8125 12.7969 46.2344 13.5312C45.6641 14.2578 45.3789 15.2383 45.3789 16.4727C45.3789 17.793 45.6836 18.7773 46.293 19.4258C46.9102 20.0742 47.7266 20.3984 48.7422 20.3984C49.2578 20.3984 49.7109 20.3398 50.1016 20.2227C50.4922 20.1055 50.8281 19.9648 51.1094 19.8008C51.3828 19.6367 51.6172 19.4688 51.8125 19.2969C52.0078 19.1172 52.1758 18.957 52.3164 18.8164H52.8438V22.332C52.6094 22.4336 52.3359 22.5508 52.0234 22.6836C51.7188 22.8164 51.4062 22.9258 51.0859 23.0117C50.6875 23.1211 50.3125 23.2031 49.9609 23.2578C49.6172 23.3203 49.1602 23.3516 48.5898 23.3516ZM63.625 13.7188H63.2852C63.1289 13.6641 62.9023 13.625 62.6055 13.6016C62.3086 13.5703 61.9805 13.5547 61.6211 13.5547C61.1914 13.5547 60.7383 13.6172 60.2617 13.7422C59.793 13.8672 59.3359 14.0156 58.8906 14.1875V23H54.7891V9.83984H58.8906V11.7266C59.0781 11.5547 59.3359 11.3398 59.6641 11.082C60 10.8164 60.3047 10.6055 60.5781 10.4492C60.875 10.2695 61.2188 10.1172 61.6094 9.99219C62.0078 9.85938 62.3828 9.79297 62.7344 9.79297C62.8672 9.79297 63.0156 9.79688 63.1797 9.80469C63.3438 9.8125 63.4922 9.82422 63.625 9.83984V13.7188ZM71.9336 23.3516C69.4492 23.3516 67.543 22.7578 66.2148 21.5703C64.8945 20.3828 64.2344 18.6914 64.2344 16.4961C64.2344 14.3477 64.8516 12.6328 66.0859 11.3516C67.3203 10.0703 69.0469 9.42969 71.2656 9.42969C73.2812 9.42969 74.7969 9.97266 75.8125 11.0586C76.8281 12.1445 77.3359 13.6992 77.3359 15.7227V17.1992H68.3477C68.3867 17.8086 68.5156 18.3203 68.7344 18.7344C68.9531 19.1406 69.2422 19.4648 69.6016 19.707C69.9531 19.9492 70.3633 20.125 70.832 20.2344C71.3008 20.3359 71.8125 20.3867 72.3672 20.3867C72.8438 20.3867 73.3125 20.3359 73.7734 20.2344C74.2344 20.125 74.6562 19.9844 75.0391 19.8125C75.375 19.6641 75.6836 19.5039 75.9648 19.332C76.2539 19.1602 76.4883 19.0078 76.668 18.875H77.1016V22.2617C76.7656 22.3945 76.457 22.5195 76.1758 22.6367C75.9023 22.7461 75.5234 22.8594 75.0391 22.9766C74.5938 23.0938 74.1328 23.1836 73.6562 23.2461C73.1875 23.3164 72.6133 23.3516 71.9336 23.3516ZM73.293 14.7266C73.2695 13.8594 73.0664 13.1992 72.6836 12.7461C72.3086 12.293 71.7305 12.0664 70.9492 12.0664C70.1523 12.0664 69.5273 12.3047 69.0742 12.7812C68.6289 13.2578 68.3828 13.9062 68.3359 14.7266H73.293ZM92.0781 16.4258C92.0781 18.5898 91.4844 20.2969 90.2969 21.5469C89.1172 22.7891 87.4453 23.4102 85.2812 23.4102C83.1328 23.4102 81.4609 22.7891 80.2656 21.5469C79.0781 20.2969 78.4844 18.5898 78.4844 16.4258C78.4844 14.2383 79.0781 12.5273 80.2656 11.293C81.4609 10.0508 83.1328 9.42969 85.2812 9.42969C87.4375 9.42969 89.1094 10.0547 90.2969 11.3047C91.4844 12.5469 92.0781 14.2539 92.0781 16.4258ZM87.8711 16.4492C87.8711 15.668 87.8047 15.0195 87.6719 14.5039C87.5469 13.9805 87.3711 13.5625 87.1445 13.25C86.9023 12.9219 86.6289 12.6953 86.3242 12.5703C86.0195 12.4375 85.6719 12.3711 85.2812 12.3711C84.9141 12.3711 84.582 12.4297 84.2852 12.5469C83.9883 12.6562 83.7148 12.8711 83.4648 13.1914C83.2305 13.4961 83.043 13.9141 82.9023 14.4453C82.7617 14.9766 82.6914 15.6445 82.6914 16.4492C82.6914 17.2539 82.7578 17.9062 82.8906 18.4062C83.0234 18.8984 83.1953 19.293 83.4062 19.5898C83.625 19.8945 83.8984 20.1172 84.2266 20.2578C84.5547 20.3984 84.918 20.4688 85.3164 20.4688C85.6445 20.4688 85.9766 20.3984 86.3125 20.2578C86.6562 20.1172 86.9297 19.9062 87.1328 19.625C87.375 19.2891 87.5586 18.8867 87.6836 18.418C87.8086 17.9414 87.8711 17.2852 87.8711 16.4492Z" fill="black"/>
</g>
<defs>
<clipPath id="clip0_6_2">
<rect width="96" height="27" fill="white"/>
</clipPath>
</defs>
</svg>
