<svg width="98" height="41" viewBox="0 0 98 41" fill="none" xmlns="http://www.w3.org/2000/svg">
<path d="M86.5675 23.3069C86.5675 24.4006 86.4191 25.3694 86.1222 26.2131C85.8331 27.0569 85.4073 27.7717 84.8448 28.3577C84.2902 28.9358 83.6183 29.3733 82.8292 29.6702C82.048 29.967 81.1652 30.1155 80.1808 30.1155C79.2589 30.1155 78.4113 29.967 77.6378 29.6702C76.8722 29.3733 76.2042 28.9358 75.6339 28.3577C75.0714 27.7717 74.6339 27.0569 74.3214 26.2131C74.0167 25.3694 73.8644 24.4006 73.8644 23.3069C73.8644 21.8538 74.1222 20.6233 74.6378 19.6155C75.1534 18.6077 75.8878 17.842 76.8409 17.3186C77.7941 16.7952 78.9308 16.5334 80.2511 16.5334C81.4777 16.5334 82.5636 16.7952 83.5089 17.3186C84.462 17.842 85.2081 18.6077 85.7472 19.6155C86.2941 20.6233 86.5675 21.8538 86.5675 23.3069ZM77.5089 23.3069C77.5089 24.1663 77.6027 24.8889 77.7902 25.4749C77.9777 26.0608 78.2706 26.5022 78.6691 26.7991C79.0675 27.0959 79.587 27.2444 80.2277 27.2444C80.8605 27.2444 81.3722 27.0959 81.7628 26.7991C82.1613 26.5022 82.4503 26.0608 82.63 25.4749C82.8175 24.8889 82.9113 24.1663 82.9113 23.3069C82.9113 22.4397 82.8175 21.7209 82.63 21.1506C82.4503 20.5725 82.1613 20.1389 81.7628 19.8499C81.3644 19.5608 80.8448 19.4163 80.2042 19.4163C79.2589 19.4163 78.5714 19.7405 78.1417 20.3889C77.7198 21.0374 77.5089 22.01 77.5089 23.3069Z" fill="black"/>
<path d="M64.1144 29.8811L59.1222 16.7795H62.8605L65.3917 24.2444C65.5323 24.6819 65.6417 25.1428 65.7198 25.6272C65.8058 26.1116 65.8644 26.5452 65.8956 26.928H65.9894C66.0128 26.5139 66.0675 26.0725 66.1534 25.6038C66.2472 25.135 66.3683 24.6819 66.5167 24.2444L69.0363 16.7795H72.7745L67.7823 29.8811H64.1144Z" fill="black"/>
<path d="M57.2355 16.7795V29.8811H53.6613V16.7795H57.2355ZM55.4542 11.6467C55.9855 11.6467 57.2355 11.6468 57.2355 11.6468C57.2372 12.2315 57.2355 15.1506 57.2355 15.1506C57.2355 15.1506 55.9855 15.1506 55.4542 15.1506C54.9152 15.1506 53.6613 15.1506 53.6613 15.1506C53.6613 15.1506 53.6613 12.3108 53.6613 11.6468C53.6613 11.6468 54.9152 11.6467 55.4542 11.6467Z" fill="black"/>
<path d="M49.8995 29.8811H46.3253V11.6467H49.8995V29.8811Z" fill="black"/>
<path d="M42.5636 29.8811H38.9894V11.6467H42.5636V29.8811Z" fill="black"/>
<path d="M57.3995 4.3125V7.88672L38.9894 7.88672V4.3125L57.3995 4.3125Z" fill="black"/>
<path d="M57.2344 33.6432V37.2174H38.9894V33.6432H57.2344Z" fill="black"/>
<path d="M36.0363 23.3069C36.0363 24.4006 35.8878 25.3694 35.5909 26.2131C35.3019 27.0569 34.8761 27.7717 34.3136 28.3577C33.7589 28.9358 33.087 29.3733 32.298 29.6702C31.5167 29.967 30.6339 30.1155 29.6495 30.1155C28.7277 30.1155 27.88 29.967 27.1066 29.6702C26.3409 29.3733 25.673 28.9358 25.1027 28.3577C24.5402 27.7717 24.1027 27.0569 23.7902 26.2131C23.4855 25.3694 23.3331 24.4006 23.3331 23.3069C23.3331 21.8538 23.5909 20.6233 24.1066 19.6155C24.6222 18.6077 25.3566 17.842 26.3097 17.3186C27.2628 16.7952 28.3995 16.5334 29.7198 16.5334C30.9464 16.5334 32.0323 16.7952 32.9777 17.3186C33.9308 17.842 34.6769 18.6077 35.2159 19.6155C35.7628 20.6233 36.0363 21.8538 36.0363 23.3069ZM26.9777 23.3069C26.9777 24.1663 27.0714 24.8889 27.2589 25.4749C27.4464 26.0608 27.7394 26.5022 28.1378 26.7991C28.5363 27.0959 29.0558 27.2444 29.6964 27.2444C30.3292 27.2444 30.8409 27.0959 31.2316 26.7991C31.63 26.5022 31.9191 26.0608 32.0988 25.4749C32.2863 24.8889 32.38 24.1663 32.38 23.3069C32.38 22.4397 32.2863 21.7209 32.0988 21.1506C31.9191 20.5725 31.63 20.1389 31.2316 19.8499C30.8331 19.5608 30.3136 19.4163 29.673 19.4163C28.7277 19.4163 28.0402 19.7405 27.6105 20.3889C27.1886 21.0374 26.9777 22.01 26.9777 23.3069Z" fill="black"/>
<path d="M19.9186 25.9905C19.9186 26.8811 19.7076 27.635 19.2858 28.2522C18.8717 28.8616 18.2506 29.3264 17.4225 29.6467C16.5944 29.9592 15.5631 30.1155 14.3287 30.1155C13.4147 30.1155 12.6295 30.0569 11.9733 29.9397C11.3248 29.8225 10.6686 29.6272 10.0045 29.3538V26.4006C10.7155 26.7209 11.4772 26.9866 12.2897 27.1975C13.11 27.4006 13.8287 27.5022 14.4459 27.5022C15.1412 27.5022 15.6373 27.4006 15.9342 27.1975C16.2389 26.9866 16.3912 26.7131 16.3912 26.3772C16.3912 26.1584 16.3287 25.9631 16.2037 25.7913C16.0865 25.6116 15.8287 25.4124 15.4303 25.1936C15.0319 24.967 14.4069 24.6741 13.5553 24.3147C12.735 23.9709 12.0592 23.6233 11.528 23.2717C11.0045 22.9202 10.6139 22.5061 10.3561 22.0295C10.1061 21.5452 9.98108 20.9319 9.98108 20.1897C9.98108 18.9788 10.4498 18.0686 11.3873 17.4592C12.3326 16.842 13.5944 16.5334 15.1725 16.5334C15.985 16.5334 16.7584 16.6155 17.4928 16.7795C18.235 16.9436 18.9967 17.2053 19.778 17.5647L18.6998 20.1428C18.0514 19.8616 17.4381 19.6311 16.86 19.4514C16.2897 19.2717 15.7076 19.1819 15.1139 19.1819C14.5905 19.1819 14.1959 19.2522 13.9303 19.3928C13.6647 19.5334 13.5319 19.7483 13.5319 20.0374C13.5319 20.2483 13.5983 20.4358 13.7311 20.5999C13.8717 20.7639 14.1373 20.9475 14.528 21.1506C14.9264 21.3459 15.5084 21.5999 16.274 21.9124C17.0162 22.217 17.6608 22.5374 18.2076 22.8733C18.7545 23.2014 19.1764 23.6116 19.4733 24.1038C19.7701 24.5881 19.9186 25.217 19.9186 25.9905Z" fill="black"/>
</svg>
