<svg width="216" height="27" viewBox="0 0 216 27" fill="none" xmlns="http://www.w3.org/2000/svg">
<g clip-path="url(#clip0_1_2)">
<mask id="mask0_1_2" style="mask-type:luminance" maskUnits="userSpaceOnUse" x="0" y="0" width="216" height="27">
<path d="M0 0.5H216V26.5H0V0.5Z" fill="white"/>
</mask>
<g mask="url(#mask0_1_2)">
<path fill-rule="evenodd" clip-rule="evenodd" d="M68 0.499969H94.0002V26.5H68V0.499969Z" fill="#231F20"/>
<path fill-rule="evenodd" clip-rule="evenodd" d="M68.7517 1.25143H93.2482V25.7483H68.7517V1.25143Z" fill="#FFF200"/>
<path fill-rule="evenodd" clip-rule="evenodd" d="M70.0517 20.7986L73.2472 24.0565L80.734 16.4602L88.4712 24.2133L91.7133 21.0025L84.0543 13.3432L85.5266 11.918V8.87903L86.4508 8.09605V10.4771L87.6412 11.4481L91.1966 7.89285L92.3399 8.76982C93.0134 6.27962 89.1135 0.624889 85.887 3.75791L82.1277 7.48533L82.8951 8.40958L80.9844 10.2733L79.1361 8.4563L80.1073 7.57933L75.9879 3.60086C72.8868 1.04818 69.7074 4.93208 69.5977 8.72255L70.7254 7.78309L74.1869 11.5106L75.4242 10.4771V8.19006L76.1915 8.76982V11.7612L77.6953 13.265L70.0517 20.7986ZM109.424 10.3479V13.9679H110.983C113.12 13.5659 112.542 10.4987 110.983 10.3479H109.424ZM105 6.75308V23.1437H109.424V17.8139L113.195 23.1437H118.424L113.774 16.5825C119.153 13.968 117.142 6.82897 111.486 6.75308H105ZM125.463 14.9482C126.921 14.9482 128.103 16.0549 128.103 17.4118C128.103 18.7697 126.921 19.8755 125.463 19.8755C124.03 19.8755 122.849 18.7697 122.849 17.4118C122.849 16.0549 124.03 14.9482 125.463 14.9482ZM124.533 11.3281C125.74 11.3281 126.871 11.7301 127.801 12.3842V11.7554H132.125L132.15 23.1437H127.776L127.801 22.4404C126.871 23.0933 125.74 23.4705 124.533 23.4705C121.315 23.4705 118.676 20.7555 118.676 17.4118C118.676 14.0682 121.315 11.3281 124.533 11.3281ZM134.438 11.7554H139.038V23.1437H134.438V11.7554ZM136.75 5.24434C138.083 5.24434 139.164 6.35106 139.164 7.68363C139.164 9.01529 138.083 10.122 136.75 10.122C135.393 10.122 134.312 9.01529 134.312 7.68363C134.312 6.35106 135.393 5.24434 136.75 5.24434ZM171.668 11.7554H176.269V23.1437H171.668V11.7554ZM173.956 5.24434C175.314 5.24434 176.394 6.35106 176.394 7.68363C176.394 9.01529 175.314 10.122 173.956 10.122C172.623 10.122 171.543 9.01529 171.543 7.68363C171.543 6.35106 172.623 5.24434 173.956 5.24434ZM139.893 11.7554V15.3755H141.477V23.1437H145.926V15.3755H150.099V23.1437H154.699V15.3258H157.565V11.806H154.574V9.26733C154.499 8.33679 156.686 7.96008 157.44 8.71354V4.99319C153.217 3.66152 149.797 6.0493 149.822 9.74436V11.7554H145.901V9.26733C145.851 8.33679 147.761 7.96008 148.868 8.71354V4.99319C145.197 3.91268 141.275 5.69696 141.3 9.71996V11.7301L139.893 11.7554ZM164.127 23.4705C168.074 23.4451 169.532 21.8116 170.387 19.4229H166.389C164.579 21.7357 161.939 20.0517 162.066 18.1662H170.512C170.512 13.5406 168.048 11.3534 164.127 11.3534C160.205 11.3534 157.741 14.1188 157.741 17.4877C157.741 20.8558 160.607 23.4956 164.127 23.4705ZM162.643 15.4758C162.694 14.0935 165.71 14.0935 165.912 15.4758H162.643ZM195.45 23.4705C199.421 23.4451 200.879 21.8116 201.735 19.4229H197.712C195.902 21.7357 193.262 20.0517 193.388 18.1662H201.835C201.835 13.5406 199.397 11.3534 195.45 11.3534C191.528 11.3534 189.064 14.1188 189.064 17.4877C189.064 20.8558 191.931 23.4956 195.45 23.4705ZM193.966 15.4758C194.017 14.0935 197.033 14.0935 197.235 15.4758H193.966ZM187.857 11.9822L186.5 14.7476C184.791 14.2191 183.132 14.3203 183.182 14.7973C183.232 15.0991 182.956 15.6276 185.62 16.0043C189.593 16.6322 189.266 24.0235 182.604 23.4705C180.769 23.3449 179.285 22.8674 178.054 22.1386L179.537 19.1717C181.623 20.2026 183.635 20.8061 183.785 19.7752C183.961 18.4924 181.598 18.9459 180.165 17.8645C177.601 16.2807 179.06 11.3787 183.258 11.3281C184.74 11.2278 186.274 11.479 187.857 11.9822ZM203.595 11.7554V23.1437H207.894V16.1805C208.019 14.4459 211.439 14.1441 211.463 16.1805V23.1437H215.812V16.0043C215.712 12.0075 211.514 10.0714 207.717 12.611V11.7554H203.595Z" fill="black"/>
<path d="M5.92983 11.9099C5.92983 12.2575 5.86712 12.5871 5.7417 12.8989C5.61987 13.2071 5.44965 13.4704 5.23107 13.689C4.95514 13.9614 4.63084 14.1674 4.25817 14.3072C3.88549 14.4469 3.41427 14.5168 2.84451 14.5168H1.94149V17.5H0.877212V9.49642H2.88751C3.36052 9.49642 3.76366 9.53584 4.09691 9.61468C4.43017 9.69351 4.72401 9.82072 4.97844 9.99631C5.27586 10.2006 5.50878 10.4604 5.6772 10.7757C5.84562 11.0875 5.92983 11.4655 5.92983 11.9099ZM4.82256 11.9367C4.82256 11.6608 4.77418 11.4207 4.67743 11.2165C4.58426 11.0122 4.44092 10.8456 4.24742 10.7166C4.079 10.6055 3.88191 10.5267 3.65615 10.4801C3.43398 10.4335 3.15627 10.4102 2.82301 10.4102H1.94149V13.6084H2.66713C3.09714 13.6084 3.44473 13.5744 3.7099 13.5063C3.97508 13.4346 4.19546 13.3092 4.37105 13.13C4.52872 12.9688 4.64339 12.7932 4.71505 12.6033C4.78672 12.4133 4.82256 12.1912 4.82256 11.9367ZM11.8102 14.5007C11.8102 15.5112 11.5666 16.2924 11.0792 16.8442C10.5919 17.3925 9.94326 17.6666 9.13341 17.6666C8.29847 17.6666 7.64092 17.3835 7.16074 16.8174C6.68414 16.2476 6.44585 15.4754 6.44585 14.5007C6.44585 13.4973 6.69131 12.7179 7.18224 12.1625C7.67675 11.6071 8.32714 11.3294 9.13341 11.3294C9.94326 11.3294 10.5919 11.6071 11.0792 12.1625C11.5666 12.7143 11.8102 13.4937 11.8102 14.5007ZM10.7674 14.5007C10.7674 13.7231 10.6259 13.1461 10.3428 12.7699C10.0597 12.39 9.65659 12.2001 9.13341 12.2001C8.60665 12.2001 8.19993 12.39 7.91326 12.7699C7.63017 13.1461 7.48862 13.7231 7.48862 14.5007C7.48862 15.2532 7.63017 15.8248 7.91326 16.2153C8.19993 16.6024 8.60665 16.7959 9.13341 16.7959C9.65301 16.7959 10.0543 16.6059 10.3374 16.2261C10.6241 15.8427 10.7674 15.2675 10.7674 14.5007ZM20.1255 11.496L18.6044 17.5H17.6691L16.2017 12.872L14.745 17.5H13.8151L12.2779 11.496H13.3314L14.3903 16.1455L15.8147 11.496H16.6478L18.1099 16.1455L19.1096 11.496H20.1255ZM23.6248 17.6398C22.668 17.6398 21.9244 17.371 21.3941 16.8335C20.8673 16.2924 20.6039 15.5255 20.6039 14.5329C20.6039 13.5547 20.8602 12.7771 21.3726 12.2001C21.885 11.6196 22.5551 11.3294 23.3829 11.3294C23.7556 11.3294 24.0852 11.3831 24.3719 11.4906C24.6586 11.5981 24.9094 11.7665 25.1244 11.9959C25.3394 12.2252 25.5043 12.5065 25.6189 12.8398C25.7336 13.1694 25.7909 13.5744 25.7909 14.0545V14.6028H21.6306C21.6306 15.3016 21.8062 15.8355 22.1573 16.2046C22.5085 16.5737 22.9941 16.7582 23.614 16.7582C23.8362 16.7582 24.053 16.7331 24.2644 16.683C24.4794 16.6328 24.6729 16.5683 24.8449 16.4895C25.0277 16.4071 25.1818 16.3282 25.3072 16.253C25.4326 16.1741 25.5365 16.1007 25.6189 16.0326H25.6781V17.1345C25.5598 17.1811 25.4129 17.2402 25.2373 17.3119C25.0617 17.38 24.904 17.4337 24.7643 17.4731C24.5672 17.5269 24.388 17.5681 24.2268 17.5968C24.0691 17.6254 23.8684 17.6398 23.6248 17.6398ZM24.8073 13.8288C24.8001 13.5564 24.7679 13.3217 24.7105 13.1246C24.6532 12.9276 24.5708 12.7609 24.4633 12.6248C24.345 12.4743 24.1927 12.3596 24.0064 12.2807C23.8236 12.2019 23.5961 12.1625 23.3238 12.1625C23.055 12.1625 22.8257 12.2037 22.6357 12.2861C22.4494 12.365 22.2792 12.4814 22.1251 12.6355C21.9746 12.7932 21.8599 12.9688 21.7811 13.1623C21.7023 13.3522 21.6521 13.5744 21.6306 13.8288H24.8073ZM29.9943 12.5818H29.9405C29.8653 12.5603 29.7847 12.5477 29.6987 12.5441C29.6162 12.537 29.5159 12.5334 29.3976 12.5334C29.1253 12.5334 28.8548 12.5925 28.586 12.7108C28.3172 12.829 28.0628 13.0046 27.8227 13.2375V17.5H26.8122V11.496H27.8227V12.3883C28.1918 12.0622 28.5125 11.8328 28.7849 11.7002C29.0608 11.5641 29.3278 11.496 29.5858 11.496C29.6897 11.496 29.7667 11.4996 29.8169 11.5067C29.8707 11.5103 29.9298 11.5175 29.9943 11.5282V12.5818ZM33.386 17.6398C32.4292 17.6398 31.6857 17.371 31.1553 16.8335C30.6286 16.2924 30.3652 15.5255 30.3652 14.5329C30.3652 13.5547 30.6214 12.7771 31.1338 12.2001C31.6462 11.6196 32.3163 11.3294 33.1441 11.3294C33.5168 11.3294 33.8465 11.3831 34.1331 11.4906C34.4198 11.5981 34.6706 11.7665 34.8857 11.9959C35.1007 12.2252 35.2655 12.5065 35.3802 12.8398C35.4948 13.1694 35.5522 13.5744 35.5522 14.0545V14.6028H31.3918C31.3918 15.3016 31.5674 15.8355 31.9186 16.2046C32.2698 16.5737 32.7553 16.7582 33.3752 16.7582C33.5974 16.7582 33.8142 16.7331 34.0256 16.683C34.2406 16.6328 34.4341 16.5683 34.6061 16.4895C34.7889 16.4071 34.943 16.3282 35.0684 16.253C35.1938 16.1741 35.2977 16.1007 35.3802 16.0326H35.4393V17.1345C35.321 17.1811 35.1741 17.2402 34.9985 17.3119C34.8229 17.38 34.6653 17.4337 34.5255 17.4731C34.3284 17.5269 34.1493 17.5681 33.988 17.5968C33.8303 17.6254 33.6297 17.6398 33.386 17.6398ZM34.5685 13.8288C34.5614 13.5564 34.5291 13.3217 34.4718 13.1246C34.4144 12.9276 34.332 12.7609 34.2245 12.6248C34.1063 12.4743 33.954 12.3596 33.7676 12.2807C33.5849 12.2019 33.3573 12.1625 33.085 12.1625C32.8162 12.1625 32.5869 12.2037 32.397 12.2861C32.2106 12.365 32.0404 12.4814 31.8863 12.6355C31.7358 12.7932 31.6212 12.9688 31.5423 13.1623C31.4635 13.3522 31.4133 13.5744 31.3918 13.8288H34.5685ZM41.1961 17.5H40.1855V16.8872C40.0279 17.0198 39.8917 17.1291 39.777 17.2151C39.6624 17.3011 39.528 17.38 39.3739 17.4516C39.2305 17.5197 39.0818 17.5717 38.9278 17.6075C38.7737 17.6469 38.5945 17.6666 38.3902 17.6666C38.0641 17.6666 37.7613 17.5985 37.4818 17.4624C37.2059 17.3262 36.9712 17.1273 36.7777 16.8657C36.5806 16.6006 36.4283 16.2745 36.3208 15.8875C36.2133 15.4969 36.1596 15.0489 36.1596 14.5437C36.1596 14.0169 36.2276 13.5618 36.3638 13.1784C36.5 12.7914 36.6881 12.4545 36.9282 12.1679C37.1468 11.9063 37.4102 11.702 37.7183 11.5551C38.0301 11.4046 38.3562 11.3294 38.6966 11.3294C38.9976 11.3294 39.2592 11.3634 39.4814 11.4315C39.7036 11.496 39.9383 11.5981 40.1855 11.7379V9.13629H41.1961V17.5ZM40.1855 16.038V12.5764C39.9347 12.4545 39.7089 12.3703 39.5083 12.3238C39.3112 12.2772 39.0962 12.2539 38.8632 12.2539C38.3437 12.2539 37.9369 12.4492 37.6431 12.8398C37.3493 13.2268 37.2023 13.7876 37.2023 14.5222C37.2023 15.2281 37.3152 15.7692 37.541 16.1455C37.7667 16.5181 38.1286 16.7045 38.6267 16.7045C38.8919 16.7045 39.1589 16.6454 39.4276 16.5271C39.6964 16.4053 39.949 16.2422 40.1855 16.038ZM50.0919 14.4792C50.0919 13.7625 49.9826 13.2196 49.764 12.8505C49.5454 12.4778 49.1942 12.2915 48.7105 12.2915C48.4346 12.2915 48.1551 12.356 47.872 12.485C47.5925 12.614 47.338 12.7771 47.1087 12.9741V16.4142C47.3631 16.5396 47.5889 16.6292 47.786 16.683C47.9831 16.7331 48.1999 16.7582 48.4364 16.7582C48.9524 16.7582 49.3573 16.5755 49.6511 16.21C49.945 15.8445 50.0919 15.2675 50.0919 14.4792ZM51.1347 14.3986C51.1347 15.3804 50.8964 16.1706 50.4198 16.769C49.9432 17.3674 49.3465 17.6666 48.6299 17.6666C48.3038 17.6666 48.0243 17.6254 47.7913 17.543C47.562 17.4642 47.3345 17.3567 47.1087 17.2205L47.0442 17.5H46.0982V9.13629H47.1087V12.1249C47.3631 11.8955 47.639 11.7056 47.9365 11.5551C48.2339 11.4046 48.5707 11.3294 48.947 11.3294C49.6243 11.3294 50.1582 11.6017 50.5488 12.1464C50.9394 12.6875 51.1347 13.4382 51.1347 14.3986ZM56.9022 11.496L53.6717 19.7146H52.5913L53.6664 17.2097L51.4841 11.496H52.5752L54.2146 15.9412L55.8487 11.496H56.9022Z" fill="black"/>
</g>
</g>
<defs>
<clipPath id="clip0_1_2">
<rect width="216" height="26" fill="white" transform="translate(0 0.5)"/>
</clipPath>
</defs>
</svg>
