<svg width="216" height="26" viewBox="0 0 216 26" fill="none" xmlns="http://www.w3.org/2000/svg">
<g clip-path="url(#clip0_7_1138)">
<rect width="216" height="26" fill="white"/>
<path fill-rule="evenodd" clip-rule="evenodd" d="M68 -1.99228e-05H94.0002V26H68V-1.99228e-05Z" fill="#231F20"/>
<path fill-rule="evenodd" clip-rule="evenodd" d="M68.7517 0.751455H93.2482V25.2483H68.7517V0.751455Z" fill="#FFF200"/>
<path fill-rule="evenodd" clip-rule="evenodd" d="M70.0517 20.2986L73.2472 23.5565L80.734 15.9602L88.4712 23.7133L91.7133 20.5025L84.0543 12.8432L85.5266 11.418V8.37905L86.4508 7.59607V9.97708L87.6412 10.9481L91.1966 7.39287L92.3399 8.26985C93.0134 5.77965 89.1135 0.124914 85.887 3.25793L82.1277 6.98535L82.8951 7.90961L80.9844 9.77331L79.1361 7.95632L80.1073 7.07935L75.9879 3.10088C72.8868 0.5482 69.7074 4.4321 69.5977 8.22257L70.7254 7.28311L74.1869 11.0106L75.4242 9.97708V7.69008L76.1915 8.26985V11.2612L77.6953 12.765L70.0517 20.2986Z" fill="#231F20"/>
<path fill-rule="evenodd" clip-rule="evenodd" d="M109.424 9.84788V13.4679H110.983C113.12 13.0659 112.542 9.99875 110.983 9.84788H109.424ZM105 6.2531V22.6437H109.424V17.3139L113.195 22.6437H118.424L113.774 16.0825C119.153 13.468 117.142 6.32899 111.486 6.2531H105ZM125.463 14.4482C126.921 14.4482 128.103 15.5549 128.103 16.9118C128.103 18.2697 126.921 19.3755 125.463 19.3755C124.03 19.3755 122.849 18.2697 122.849 16.9118C122.849 15.5549 124.03 14.4482 125.463 14.4482ZM124.533 10.8281C125.74 10.8281 126.871 11.2301 127.801 11.8842V11.2554H132.125L132.15 22.6437H127.776L127.801 21.9404C126.871 22.5933 125.74 22.9705 124.533 22.9705C121.315 22.9705 118.676 20.2555 118.676 16.9118C118.676 13.5682 121.315 10.8281 124.533 10.8281ZM134.438 11.2554H139.038V22.6437H134.438V11.2554ZM136.75 4.74436C138.083 4.74436 139.164 5.85108 139.164 7.18365C139.164 8.51531 138.083 9.62202 136.75 9.62202C135.393 9.62202 134.312 8.51531 134.312 7.18365C134.312 5.85108 135.393 4.74436 136.75 4.74436ZM171.668 11.2554H176.269V22.6437H171.668V11.2554ZM173.956 4.74436C175.314 4.74436 176.394 5.85108 176.394 7.18365C176.394 8.51531 175.314 9.62202 173.956 9.62202C172.623 9.62202 171.543 8.51531 171.543 7.18365C171.543 5.85108 172.623 4.74436 173.956 4.74436ZM139.893 11.2554V14.8755H141.477V22.6437H145.926V14.8755H150.099V22.6437H154.699V14.8258H157.565V11.306H154.574V8.76736C154.499 7.83682 156.686 7.4601 157.44 8.21356V4.49321C153.217 3.16154 149.797 5.54932 149.822 9.24438V11.2554H145.901V8.76736C145.851 7.83682 147.761 7.4601 148.868 8.21356V4.49321C145.197 3.4127 141.275 5.19698 141.3 9.21998V11.2301L139.893 11.2554ZM164.127 22.9705C168.074 22.9451 169.532 21.3116 170.387 18.9229H166.389C164.579 21.2357 161.939 19.5517 162.066 17.6662H170.512C170.512 13.0406 168.048 10.8534 164.127 10.8534C160.205 10.8534 157.741 13.6188 157.741 16.9877C157.741 20.3558 160.607 22.9956 164.127 22.9705ZM162.643 14.9758C162.694 13.5935 165.71 13.5935 165.912 14.9758H162.643ZM195.45 22.9705C199.421 22.9451 200.879 21.3116 201.735 18.9229H197.712C195.902 21.2357 193.262 19.5517 193.388 17.6662H201.835C201.835 13.0406 199.397 10.8534 195.45 10.8534C191.528 10.8534 189.064 13.6188 189.064 16.9877C189.064 20.3558 191.931 22.9956 195.45 22.9705ZM193.966 14.9758C194.017 13.5935 197.033 13.5935 197.235 14.9758H193.966ZM187.857 11.4822L186.5 14.2476C184.791 13.7191 183.132 13.8203 183.182 14.2973C183.232 14.5991 182.956 15.1276 185.62 15.5043C189.593 16.1322 189.266 23.5235 182.604 22.9705C180.769 22.8449 179.285 22.3674 178.054 21.6386L179.537 18.6717C181.623 19.7026 183.635 20.3061 183.785 19.2752C183.961 17.9924 181.598 18.4459 180.165 17.3645C177.601 15.7807 179.06 10.8787 183.258 10.8281C184.74 10.7278 186.274 10.979 187.857 11.4822ZM203.595 11.2554V22.6437H207.894V15.6805C208.019 13.9459 211.439 13.6441 211.463 15.6805V22.6437H215.812V15.5043C215.712 11.5075 211.514 9.57142 207.717 12.111V11.2554H203.595Z" fill="#231F20"/>
<path d="M5.92983 11.4099C5.92983 11.7575 5.86712 12.0871 5.7417 12.3989C5.61987 12.7071 5.44965 12.9704 5.23107 13.189C4.95514 13.4614 4.63084 13.6674 4.25817 13.8072C3.88549 13.9469 3.41427 14.0168 2.84451 14.0168H1.94149V17H0.877212V8.99643H2.88751C3.36052 8.99643 3.76366 9.03585 4.09691 9.11469C4.43017 9.19352 4.72401 9.32073 4.97844 9.49632C5.27586 9.70057 5.50878 9.96037 5.6772 10.2757C5.84562 10.5875 5.92983 10.9655 5.92983 11.4099ZM4.82256 11.4367C4.82256 11.1608 4.77418 10.9207 4.67743 10.7165C4.58426 10.5122 4.44092 10.3456 4.24742 10.2166C4.079 10.1055 3.88191 10.0267 3.65615 9.98008C3.43398 9.9335 3.15627 9.9102 2.82301 9.9102H1.94149V13.1084H2.66713C3.09714 13.1084 3.44473 13.0744 3.7099 13.0063C3.97508 12.9346 4.19546 12.8092 4.37105 12.63C4.52872 12.4688 4.64339 12.2932 4.71505 12.1033C4.78672 11.9133 4.82256 11.6912 4.82256 11.4367ZM11.8102 14.0007C11.8102 15.0112 11.5666 15.7924 11.0792 16.3442C10.5919 16.8925 9.94326 17.1666 9.13341 17.1666C8.29847 17.1666 7.64092 16.8835 7.16074 16.3174C6.68414 15.7476 6.44585 14.9754 6.44585 14.0007C6.44585 12.9973 6.69131 12.2179 7.18224 11.6625C7.67675 11.1071 8.32714 10.8294 9.13341 10.8294C9.94326 10.8294 10.5919 11.1071 11.0792 11.6625C11.5666 12.2143 11.8102 12.9937 11.8102 14.0007ZM10.7674 14.0007C10.7674 13.2231 10.6259 12.6461 10.3428 12.2699C10.0597 11.89 9.65659 11.7001 9.13341 11.7001C8.60665 11.7001 8.19993 11.89 7.91326 12.2699C7.63017 12.6461 7.48862 13.2231 7.48862 14.0007C7.48862 14.7532 7.63017 15.3248 7.91326 15.7153C8.19993 16.1024 8.60665 16.2959 9.13341 16.2959C9.65301 16.2959 10.0543 16.1059 10.3374 15.7261C10.6241 15.3427 10.7674 14.7675 10.7674 14.0007ZM20.1255 10.996L18.6044 17H17.6691L16.2017 12.372L14.745 17H13.8151L12.2779 10.996H13.3314L14.3903 15.6455L15.8147 10.996H16.6478L18.1099 15.6455L19.1096 10.996H20.1255ZM23.6248 17.1398C22.668 17.1398 21.9244 16.871 21.3941 16.3335C20.8673 15.7924 20.6039 15.0255 20.6039 14.0329C20.6039 13.0547 20.8602 12.2771 21.3726 11.7001C21.885 11.1196 22.5551 10.8294 23.3829 10.8294C23.7556 10.8294 24.0852 10.8831 24.3719 10.9906C24.6586 11.0981 24.9094 11.2665 25.1244 11.4959C25.3394 11.7252 25.5043 12.0065 25.6189 12.3398C25.7336 12.6694 25.7909 13.0744 25.7909 13.5545V14.1028H21.6306C21.6306 14.8016 21.8062 15.3355 22.1573 15.7046C22.5085 16.0737 22.9941 16.2582 23.614 16.2582C23.8362 16.2582 24.053 16.2331 24.2644 16.183C24.4794 16.1328 24.6729 16.0683 24.8449 15.9895C25.0277 15.9071 25.1818 15.8282 25.3072 15.753C25.4326 15.6741 25.5365 15.6007 25.6189 15.5326H25.6781V16.6345C25.5598 16.6811 25.4129 16.7402 25.2373 16.8119C25.0617 16.88 24.904 16.9337 24.7643 16.9731C24.5672 17.0269 24.388 17.0681 24.2268 17.0968C24.0691 17.1254 23.8684 17.1398 23.6248 17.1398ZM24.8073 13.3288C24.8001 13.0564 24.7679 12.8217 24.7105 12.6246C24.6532 12.4276 24.5708 12.2609 24.4633 12.1248C24.345 11.9743 24.1927 11.8596 24.0064 11.7807C23.8236 11.7019 23.5961 11.6625 23.3238 11.6625C23.055 11.6625 22.8257 11.7037 22.6357 11.7861C22.4494 11.865 22.2792 11.9814 22.1251 12.1355C21.9746 12.2932 21.8599 12.4688 21.7811 12.6623C21.7023 12.8522 21.6521 13.0744 21.6306 13.3288H24.8073ZM29.9943 12.0818H29.9405C29.8653 12.0603 29.7847 12.0477 29.6987 12.0441C29.6162 12.037 29.5159 12.0334 29.3976 12.0334C29.1253 12.0334 28.8548 12.0925 28.586 12.2108C28.3172 12.329 28.0628 12.5046 27.8227 12.7375V17H26.8122V10.996H27.8227V11.8883C28.1918 11.5622 28.5125 11.3328 28.7849 11.2002C29.0608 11.0641 29.3278 10.996 29.5858 10.996C29.6897 10.996 29.7667 10.9996 29.8169 11.0067C29.8707 11.0103 29.9298 11.0175 29.9943 11.0282V12.0818ZM33.386 17.1398C32.4292 17.1398 31.6857 16.871 31.1553 16.3335C30.6286 15.7924 30.3652 15.0255 30.3652 14.0329C30.3652 13.0547 30.6214 12.2771 31.1338 11.7001C31.6462 11.1196 32.3163 10.8294 33.1441 10.8294C33.5168 10.8294 33.8465 10.8831 34.1331 10.9906C34.4198 11.0981 34.6706 11.2665 34.8857 11.4959C35.1007 11.7252 35.2655 12.0065 35.3802 12.3398C35.4948 12.6694 35.5522 13.0744 35.5522 13.5545V14.1028H31.3918C31.3918 14.8016 31.5674 15.3355 31.9186 15.7046C32.2698 16.0737 32.7553 16.2582 33.3752 16.2582C33.5974 16.2582 33.8142 16.2331 34.0256 16.183C34.2406 16.1328 34.4341 16.0683 34.6061 15.9895C34.7889 15.9071 34.943 15.8282 35.0684 15.753C35.1938 15.6741 35.2977 15.6007 35.3802 15.5326H35.4393V16.6345C35.321 16.6811 35.1741 16.7402 34.9985 16.8119C34.8229 16.88 34.6653 16.9337 34.5255 16.9731C34.3284 17.0269 34.1493 17.0681 33.988 17.0968C33.8303 17.1254 33.6297 17.1398 33.386 17.1398ZM34.5685 13.3288C34.5614 13.0564 34.5291 12.8217 34.4718 12.6246C34.4144 12.4276 34.332 12.2609 34.2245 12.1248C34.1063 11.9743 33.954 11.8596 33.7676 11.7807C33.5849 11.7019 33.3573 11.6625 33.085 11.6625C32.8162 11.6625 32.5869 11.7037 32.397 11.7861C32.2106 11.865 32.0404 11.9814 31.8863 12.1355C31.7358 12.2932 31.6212 12.4688 31.5423 12.6623C31.4635 12.8522 31.4133 13.0744 31.3918 13.3288H34.5685ZM41.1961 17H40.1855V16.3872C40.0279 16.5198 39.8917 16.6291 39.777 16.7151C39.6624 16.8011 39.528 16.88 39.3739 16.9516C39.2305 17.0197 39.0818 17.0717 38.9278 17.1075C38.7737 17.1469 38.5945 17.1666 38.3902 17.1666C38.0641 17.1666 37.7613 17.0985 37.4818 16.9624C37.2059 16.8262 36.9712 16.6273 36.7777 16.3657C36.5806 16.1006 36.4283 15.7745 36.3208 15.3875C36.2133 14.9969 36.1596 14.5489 36.1596 14.0437C36.1596 13.5169 36.2276 13.0618 36.3638 12.6784C36.5 12.2914 36.6881 11.9545 36.9282 11.6679C37.1468 11.4063 37.4102 11.202 37.7183 11.0551C38.0301 10.9046 38.3562 10.8294 38.6966 10.8294C38.9976 10.8294 39.2592 10.8634 39.4814 10.9315C39.7036 10.996 39.9383 11.0981 40.1855 11.2379V8.6363H41.1961V17ZM40.1855 15.538V12.0764C39.9347 11.9545 39.7089 11.8703 39.5083 11.8238C39.3112 11.7772 39.0962 11.7539 38.8632 11.7539C38.3437 11.7539 37.9369 11.9492 37.6431 12.3398C37.3493 12.7268 37.2023 13.2876 37.2023 14.0222C37.2023 14.7281 37.3152 15.2692 37.541 15.6455C37.7667 16.0181 38.1286 16.2045 38.6267 16.2045C38.8919 16.2045 39.1589 16.1454 39.4276 16.0271C39.6964 15.9053 39.949 15.7422 40.1855 15.538ZM50.0919 13.9792C50.0919 13.2625 49.9826 12.7196 49.764 12.3505C49.5454 11.9778 49.1942 11.7915 48.7105 11.7915C48.4346 11.7915 48.1551 11.856 47.872 11.985C47.5925 12.114 47.338 12.2771 47.1087 12.4741V15.9142C47.3631 16.0396 47.5889 16.1292 47.786 16.183C47.9831 16.2331 48.1999 16.2582 48.4364 16.2582C48.9524 16.2582 49.3573 16.0755 49.6511 15.71C49.945 15.3445 50.0919 14.7675 50.0919 13.9792ZM51.1347 13.8986C51.1347 14.8804 50.8964 15.6706 50.4198 16.269C49.9432 16.8674 49.3465 17.1666 48.6299 17.1666C48.3038 17.1666 48.0243 17.1254 47.7913 17.043C47.562 16.9642 47.3345 16.8567 47.1087 16.7205L47.0442 17H46.0982V8.6363H47.1087V11.6249C47.3631 11.3955 47.639 11.2056 47.9365 11.0551C48.2339 10.9046 48.5707 10.8294 48.947 10.8294C49.6243 10.8294 50.1582 11.1017 50.5488 11.6464C50.9394 12.1875 51.1347 12.9382 51.1347 13.8986ZM56.9022 10.996L53.6717 19.2146H52.5913L53.6664 16.7097L51.4841 10.996H52.5752L54.2146 15.4412L55.8487 10.996H56.9022Z" fill="black"/>
</g>
<defs>
<clipPath id="clip0_7_1138">
<rect width="216" height="26" fill="white"/>
</clipPath>
</defs>
</svg>
